<?xml version="1.0" encoding="utf-8" standalone="no"?>
<!DOCTYPE svg PUBLIC "-//W3C//DTD SVG 1.1//EN"
  "http://www.w3.org/Graphics/SVG/1.1/DTD/svg11.dtd">
<svg xmlns:xlink="http://www.w3.org/1999/xlink" width="864pt" height="540pt" viewBox="0 0 864 540" xmlns="http://www.w3.org/2000/svg" version="1.1">
 <metadata>
  <rdf:RDF xmlns:dc="http://purl.org/dc/elements/1.1/" xmlns:cc="http://creativecommons.org/ns#" xmlns:rdf="http://www.w3.org/1999/02/22-rdf-syntax-ns#">
   <cc:Work>
    <dc:type rdf:resource="http://purl.org/dc/dcmitype/StillImage"/>
    <dc:date>2026-10-04T21:01:10.270918</dc:date>
    <dc:format>image/svg+xml</dc:format>
    <dc:creator>
     <cc:Agent>
      <dc:title>Matplotlib v3.11.2, https://matplotlib.org/</dc:title>
     </cc:Agent>
    </dc:creator>
   </cc:Work>
  </rdf:RDF>
 </metadata>
 <defs>
  <style type="text/css">*{stroke-linejoin: round; stroke-linecap: butt}</style>
 </defs>
 <g id="figure_1">
  <g id="patch_1">
   <path d="M 0 540 
L 864 540 
L 864 0 
L 0 0 
z
" style="fill: #ffffff"/>
  </g>
  <g id="axes_1">
   <g id="patch_2">
    <path d="M 216 469.8 
L 751.68 469.8 
L 751.68 102.6 
L 216 102.6 
z
" style="fill: #ffffff"/>
   </g>
   <g id="line2d_1">
    <path d="M 403.341639 171.45 
L 650.691148 171.45 
" clip-path="url(#pa089f285d2)" style="fill: none; stroke: #b5651d; stroke-opacity: 0.35; stroke-width: 4; stroke-linecap: square"/>
   </g>
   <g id="line2d_2">
    <path d="M 420.904918 286.2 
L 624.34623 286.2 
" clip-path="url(#pa089f285d2)" style="fill: none; stroke: #7b5ea7; stroke-opacity: 0.35; stroke-width: 4; stroke-linecap: square"/>
   </g>
   <g id="line2d_3">
    <path d="M 432.61377 400.95 
L 567.265574 400.95 
" clip-path="url(#pa089f285d2)" style="fill: none; stroke: #3b7dd8; stroke-opacity: 0.35; stroke-width: 4; stroke-linecap: square"/>
   </g>
   <g id="PathCollection_1"/>
   <g id="PathCollection_2"/>
   <g id="matplotlib.axis_1">
    <g id="xtick_1">
     <g id="line2d_4">
      <defs>
       <path id="m24015540bd" d="M 0 0 
L 0 3.5 
" style="stroke: #1f2328; stroke-width: 0.8"/>
      </defs>
      <g>
       <use xlink:href="#m24015540bd" x="259.908197" y="469.8" style="fill: #1f2328; stroke: #1f2328; stroke-width: 0.8"/>
      </g>
     </g>
     <g id="text_1">
      <text style="font-size: 13px; font-family: 'DejaVu Sans', 'Bitstream Vera Sans', 'Computer Modern Sans Serif', 'Lucida Grande', 'Verdana', 'Geneva', 'Lucid', 'Arial', 'Helvetica', 'Avant Garde', sans-serif; text-anchor: middle; fill: #1f2328" x="259.908197" y="486.676953" transform="rotate(-0 259.908197 486.676953)">4</text>
     </g>
    </g>
    <g id="xtick_2">
     <g id="line2d_5">
      <g>
       <use xlink:href="#m24015540bd" x="347.72459" y="469.8" style="fill: #1f2328; stroke: #1f2328; stroke-width: 0.8"/>
      </g>
     </g>
     <g id="text_2">
      <text style="font-size: 13px; font-family: 'DejaVu Sans', 'Bitstream Vera Sans', 'Computer Modern Sans Serif', 'Lucida Grande', 'Verdana', 'Geneva', 'Lucid', 'Arial', 'Helvetica', 'Avant Garde', sans-serif; text-anchor: middle; fill: #1f2328" x="347.72459" y="486.676953" transform="rotate(-0 347.72459 486.676953)">5</text>
     </g>
    </g>
    <g id="xtick_3">
     <g id="line2d_6">
      <g>
       <use xlink:href="#m24015540bd" x="435.540984" y="469.8" style="fill: #1f2328; stroke: #1f2328; stroke-width: 0.8"/>
      </g>
     </g>
     <g id="text_3">
      <text style="font-size: 13px; font-family: 'DejaVu Sans', 'Bitstream Vera Sans', 'Computer Modern Sans Serif', 'Lucida Grande', 'Verdana', 'Geneva', 'Lucid', 'Arial', 'Helvetica', 'Avant Garde', sans-serif; text-anchor: middle; fill: #1f2328" x="435.540984" y="486.676953" transform="rotate(-0 435.540984 486.676953)">6</text>
     </g>
    </g>
    <g id="xtick_4">
     <g id="line2d_7">
      <g>
       <use xlink:href="#m24015540bd" x="523.357377" y="469.8" style="fill: #1f2328; stroke: #1f2328; stroke-width: 0.8"/>
      </g>
     </g>
     <g id="text_4">
      <text style="font-size: 13px; font-family: 'DejaVu Sans', 'Bitstream Vera Sans', 'Computer Modern Sans Serif', 'Lucida Grande', 'Verdana', 'Geneva', 'Lucid', 'Arial', 'Helvetica', 'Avant Garde', sans-serif; text-anchor: middle; fill: #1f2328" x="523.357377" y="486.676953" transform="rotate(-0 523.357377 486.676953)">7</text>
     </g>
    </g>
    <g id="xtick_5">
     <g id="line2d_8">
      <g>
       <use xlink:href="#m24015540bd" x="611.17377" y="469.8" style="fill: #1f2328; stroke: #1f2328; stroke-width: 0.8"/>
      </g>
     </g>
     <g id="text_5">
      <text style="font-size: 13px; font-family: 'DejaVu Sans', 'Bitstream Vera Sans', 'Computer Modern Sans Serif', 'Lucida Grande', 'Verdana', 'Geneva', 'Lucid', 'Arial', 'Helvetica', 'Avant Garde', sans-serif; text-anchor: middle; fill: #1f2328" x="611.17377" y="486.676953" transform="rotate(-0 611.17377 486.676953)">8</text>
     </g>
    </g>
    <g id="xtick_6">
     <g id="line2d_9">
      <g>
       <use xlink:href="#m24015540bd" x="698.990164" y="469.8" style="fill: #1f2328; stroke: #1f2328; stroke-width: 0.8"/>
      </g>
     </g>
     <g id="text_6">
      <text style="font-size: 13px; font-family: 'DejaVu Sans', 'Bitstream Vera Sans', 'Computer Modern Sans Serif', 'Lucida Grande', 'Verdana', 'Geneva', 'Lucid', 'Arial', 'Helvetica', 'Avant Garde', sans-serif; text-anchor: middle; fill: #1f2328" x="698.990164" y="486.676953" transform="rotate(-0 698.990164 486.676953)">9</text>
     </g>
    </g>
    <g id="text_7">
     <text style="font-size: 13px; font-family: 'DejaVu Sans', 'Bitstream Vera Sans', 'Computer Modern Sans Serif', 'Lucida Grande', 'Verdana', 'Geneva', 'Lucid', 'Arial', 'Helvetica', 'Avant Garde', sans-serif; text-anchor: middle; fill: #1f2328" x="483.84" y="503.677969" transform="rotate(-0 483.84 503.677969)">Average judge score (0–10)</text>
    </g>
   </g>
   <g id="matplotlib.axis_2"/>
   <g id="patch_3">
    <path d="M 216 469.8 
L 751.68 469.8 
" style="fill: none; stroke: #888888; stroke-width: 0.8; stroke-linejoin: miter; stroke-linecap: square"/>
   </g>
   <g id="PathCollection_3">
    <defs>
     <path id="mc020f67a16" d="M 0 8.062258 
C 2.138136 8.062258 4.188987 7.212767 5.700877 5.700877 
C 7.212767 4.188987 8.062258 2.138136 8.062258 0 
C 8.062258 -2.138136 7.212767 -4.188987 5.700877 -5.700877 
C 4.188987 -7.212767 2.138136 -8.062258 0 -8.062258 
C -2.138136 -8.062258 -4.188987 -7.212767 -5.700877 -5.700877 
C -7.212767 -4.188987 -8.062258 -2.138136 -8.062258 0 
C -8.062258 2.138136 -7.212767 4.188987 -5.700877 5.700877 
C -4.188987 7.212767 -2.138136 8.062258 0 8.062258 
z
" style="stroke: #b5651d; stroke-width: 3"/>
    </defs>
    <g clip-path="url(#pa089f285d2)">
     <use xlink:href="#mc020f67a16" x="403.341639" y="171.45" style="fill: #ffffff; stroke: #b5651d; stroke-width: 3"/>
    </g>
   </g>
   <g id="PathCollection_4">
    <defs>
     <path id="me75f313f9b" d="M 0 8.062258 
C 2.138136 8.062258 4.188987 7.212767 5.700877 5.700877 
C 7.212767 4.188987 8.062258 2.138136 8.062258 0 
C 8.062258 -2.138136 7.212767 -4.188987 5.700877 -5.700877 
C 4.188987 -7.212767 2.138136 -8.062258 0 -8.062258 
C -2.138136 -8.062258 -4.188987 -7.212767 -5.700877 -5.700877 
C -7.212767 -4.188987 -8.062258 -2.138136 -8.062258 0 
C -8.062258 2.138136 -7.212767 4.188987 -5.700877 5.700877 
C -4.188987 7.212767 -2.138136 8.062258 0 8.062258 
z
" style="stroke: #b5651d"/>
    </defs>
    <g clip-path="url(#pa089f285d2)">
     <use xlink:href="#me75f313f9b" x="650.691148" y="171.45" style="fill: #b5651d; stroke: #b5651d"/>
    </g>
   </g>
   <g id="text_8">
    <text style="font-size: 13px; font-family: 'DejaVu Sans', 'Bitstream Vera Sans', 'Computer Modern Sans Serif', 'Lucida Grande', 'Verdana', 'Geneva', 'Lucid', 'Arial', 'Helvetica', 'Avant Garde', sans-serif; text-anchor: end; fill: #b5651d" x="390.16918" y="174.826953" transform="rotate(-0 390.16918 174.826953)">5.6</text>
   </g>
   <g id="text_9">
    <text style="font-weight: 700; font-size: 14px; font-family: 'DejaVu Sans', 'Bitstream Vera Sans', 'Computer Modern Sans Serif', 'Lucida Grande', 'Verdana', 'Geneva', 'Lucid', 'Arial', 'Helvetica', 'Avant Garde', sans-serif; text-anchor: start; fill: #b5651d" x="663.863607" y="175.086719" transform="rotate(-0 663.863607 175.086719)">8.5</text>
   </g>
   <g id="text_10">
    <text style="font-weight: 700; font-size: 16px; font-family: 'DejaVu Sans', 'Bitstream Vera Sans', 'Computer Modern Sans Serif', 'Lucida Grande', 'Verdana', 'Geneva', 'Lucid', 'Arial', 'Helvetica', 'Avant Garde', sans-serif; text-anchor: end; fill: #b5651d" x="202.827541" y="175.60625" transform="rotate(-0 202.827541 175.60625)">Opus</text>
   </g>
   <g id="text_11">
    <text style="font-size: 12px; font-family: 'DejaVu Sans', 'Bitstream Vera Sans', 'Computer Modern Sans Serif', 'Lucida Grande', 'Verdana', 'Geneva', 'Lucid', 'Arial', 'Helvetica', 'Avant Garde', sans-serif; text-anchor: middle; fill: #b5651d" x="527.016393" y="146.205" transform="rotate(-0 527.016393 146.205)">+2.8</text>
   </g>
   <g id="PathCollection_5">
    <defs>
     <path id="m181b052718" d="M 0 8.062258 
C 2.138136 8.062258 4.188987 7.212767 5.700877 5.700877 
C 7.212767 4.188987 8.062258 2.138136 8.062258 0 
C 8.062258 -2.138136 7.212767 -4.188987 5.700877 -5.700877 
C 4.188987 -7.212767 2.138136 -8.062258 0 -8.062258 
C -2.138136 -8.062258 -4.188987 -7.212767 -5.700877 -5.700877 
C -7.212767 -4.188987 -8.062258 -2.138136 -8.062258 0 
C -8.062258 2.138136 -7.212767 4.188987 -5.700877 5.700877 
C -4.188987 7.212767 -2.138136 8.062258 0 8.062258 
z
" style="stroke: #7b5ea7; stroke-width: 3"/>
    </defs>
    <g clip-path="url(#pa089f285d2)">
     <use xlink:href="#m181b052718" x="420.904918" y="286.2" style="fill: #ffffff; stroke: #7b5ea7; stroke-width: 3"/>
    </g>
   </g>
   <g id="PathCollection_6">
    <defs>
     <path id="ma1631bcc5a" d="M 0 8.062258 
C 2.138136 8.062258 4.188987 7.212767 5.700877 5.700877 
C 7.212767 4.188987 8.062258 2.138136 8.062258 0 
C 8.062258 -2.138136 7.212767 -4.188987 5.700877 -5.700877 
C 4.188987 -7.212767 2.138136 -8.062258 0 -8.062258 
C -2.138136 -8.062258 -4.188987 -7.212767 -5.700877 -5.700877 
C -7.212767 -4.188987 -8.062258 -2.138136 -8.062258 0 
C -8.062258 2.138136 -7.212767 4.188987 -5.700877 5.700877 
C -4.188987 7.212767 -2.138136 8.062258 0 8.062258 
z
" style="stroke: #7b5ea7"/>
    </defs>
    <g clip-path="url(#pa089f285d2)">
     <use xlink:href="#ma1631bcc5a" x="624.34623" y="286.2" style="fill: #7b5ea7; stroke: #7b5ea7"/>
    </g>
   </g>
   <g id="text_12">
    <text style="font-size: 13px; font-family: 'DejaVu Sans', 'Bitstream Vera Sans', 'Computer Modern Sans Serif', 'Lucida Grande', 'Verdana', 'Geneva', 'Lucid', 'Arial', 'Helvetica', 'Avant Garde', sans-serif; text-anchor: end; fill: #7b5ea7" x="407.732459" y="289.576953" transform="rotate(-0 407.732459 289.576953)">5.8</text>
   </g>
   <g id="text_13">
    <text style="font-weight: 700; font-size: 14px; font-family: 'DejaVu Sans', 'Bitstream Vera Sans', 'Computer Modern Sans Serif', 'Lucida Grande', 'Verdana', 'Geneva', 'Lucid', 'Arial', 'Helvetica', 'Avant Garde', sans-serif; text-anchor: start; fill: #7b5ea7" x="637.518689" y="289.836719" transform="rotate(-0 637.518689 289.836719)">8.2</text>
   </g>
   <g id="text_14">
    <text style="font-weight: 700; font-size: 16px; font-family: 'DejaVu Sans', 'Bitstream Vera Sans', 'Computer Modern Sans Serif', 'Lucida Grande', 'Verdana', 'Geneva', 'Lucid', 'Arial', 'Helvetica', 'Avant Garde', sans-serif; text-anchor: end; fill: #7b5ea7" x="202.827541" y="290.35625" transform="rotate(-0 202.827541 290.35625)">Astra</text>
   </g>
   <g id="text_15">
    <text style="font-size: 12px; font-family: 'DejaVu Sans', 'Bitstream Vera Sans', 'Computer Modern Sans Serif', 'Lucida Grande', 'Verdana', 'Geneva', 'Lucid', 'Arial', 'Helvetica', 'Avant Garde', sans-serif; text-anchor: middle; fill: #7b5ea7" x="522.625574" y="260.955" transform="rotate(-0 522.625574 260.955)">+2.3</text>
   </g>
   <g id="PathCollection_7">
    <defs>
     <path id="mb967ba6e5f" d="M 0 8.062258 
C 2.138136 8.062258 4.188987 7.212767 5.700877 5.700877 
C 7.212767 4.188987 8.062258 2.138136 8.062258 0 
C 8.062258 -2.138136 7.212767 -4.188987 5.700877 -5.700877 
C 4.188987 -7.212767 2.138136 -8.062258 0 -8.062258 
C -2.138136 -8.062258 -4.188987 -7.212767 -5.700877 -5.700877 
C -7.212767 -4.188987 -8.062258 -2.138136 -8.062258 0 
C -8.062258 2.138136 -7.212767 4.188987 -5.700877 5.700877 
C -4.188987 7.212767 -2.138136 8.062258 0 8.062258 
z
" style="stroke: #3b7dd8; stroke-width: 3"/>
    </defs>
    <g clip-path="url(#pa089f285d2)">
     <use xlink:href="#mb967ba6e5f" x="432.61377" y="400.95" style="fill: #ffffff; stroke: #3b7dd8; stroke-width: 3"/>
    </g>
   </g>
   <g id="PathCollection_8">
    <defs>
     <path id="m5366a226dd" d="M 0 8.062258 
C 2.138136 8.062258 4.188987 7.212767 5.700877 5.700877 
C 7.212767 4.188987 8.062258 2.138136 8.062258 0 
C 8.062258 -2.138136 7.212767 -4.188987 5.700877 -5.700877 
C 4.188987 -7.212767 2.138136 -8.062258 0 -8.062258 
C -2.138136 -8.062258 -4.188987 -7.212767 -5.700877 -5.700877 
C -7.212767 -4.188987 -8.062258 -2.138136 -8.062258 0 
C -8.062258 2.138136 -7.212767 4.188987 -5.700877 5.700877 
C -4.188987 7.212767 -2.138136 8.062258 0 8.062258 
z
" style="stroke: #3b7dd8"/>
    </defs>
    <g clip-path="url(#pa089f285d2)">
     <use xlink:href="#m5366a226dd" x="567.265574" y="400.95" style="fill: #3b7dd8; stroke: #3b7dd8"/>
    </g>
   </g>
   <g id="text_16">
    <text style="font-size: 13px; font-family: 'DejaVu Sans', 'Bitstream Vera Sans', 'Computer Modern Sans Serif', 'Lucida Grande', 'Verdana', 'Geneva', 'Lucid', 'Arial', 'Helvetica', 'Avant Garde', sans-serif; text-anchor: end; fill: #3b7dd8" x="419.441311" y="404.326953" transform="rotate(-0 419.441311 404.326953)">6.0</text>
   </g>
   <g id="text_17">
    <text style="font-weight: 700; font-size: 14px; font-family: 'DejaVu Sans', 'Bitstream Vera Sans', 'Computer Modern Sans Serif', 'Lucida Grande', 'Verdana', 'Geneva', 'Lucid', 'Arial', 'Helvetica', 'Avant Garde', sans-serif; text-anchor: start; fill: #3b7dd8" x="580.438033" y="404.586719" transform="rotate(-0 580.438033 404.586719)">7.5</text>
   </g>
   <g id="text_18">
    <text style="font-weight: 700; font-size: 16px; font-family: 'DejaVu Sans', 'Bitstream Vera Sans', 'Computer Modern Sans Serif', 'Lucida Grande', 'Verdana', 'Geneva', 'Lucid', 'Arial', 'Helvetica', 'Avant Garde', sans-serif; text-anchor: end; fill: #3b7dd8" x="202.827541" y="405.10625" transform="rotate(-0 202.827541 405.10625)">Luna</text>
   </g>
   <g id="text_19">
    <text style="font-size: 12px; font-family: 'DejaVu Sans', 'Bitstream Vera Sans', 'Computer Modern Sans Serif', 'Lucida Grande', 'Verdana', 'Geneva', 'Lucid', 'Arial', 'Helvetica', 'Avant Garde', sans-serif; text-anchor: middle; fill: #3b7dd8" x="499.939672" y="375.705" transform="rotate(-0 499.939672 375.705)">+1.5</text>
   </g>
   <g id="legend_1">
    <g id="PathCollection_9">
     <defs>
      <path id="m1cca6c364d" d="M 0 5.477226 
C 1.452577 5.477226 2.845856 4.900111 3.872983 3.872983 
C 4.900111 2.845856 5.477226 1.452577 5.477226 0 
C 5.477226 -1.452577 4.900111 -2.845856 3.872983 -3.872983 
C 2.845856 -4.900111 1.452577 -5.477226 0 -5.477226 
C -1.452577 -5.477226 -2.845856 -4.900111 -3.872983 -3.872983 
C -4.900111 -2.845856 -5.477226 -1.452577 -5.477226 0 
C -5.477226 1.452577 -4.900111 2.845856 -3.872983 3.872983 
C -2.845856 4.900111 -1.452577 5.477226 0 5.477226 
z
" style="stroke: #6a737d; stroke-width: 2"/>
     </defs>
     <g>
      <use xlink:href="#m1cca6c364d" x="582.422031" y="432.063437" style="fill: #ffffff; stroke: #6a737d; stroke-width: 2"/>
     </g>
    </g>
    <g id="text_20">
     <text style="font-size: 13px; font-family: 'DejaVu Sans', 'Bitstream Vera Sans', 'Computer Modern Sans Serif', 'Lucida Grande', 'Verdana', 'Geneva', 'Lucid', 'Arial', 'Helvetica', 'Avant Garde', sans-serif; text-anchor: start; fill: #1f2328" x="605.822031" y="435.475937" transform="rotate(-0 605.822031 435.475937)">first prompts (v1)</text>
    </g>
    <g id="PathCollection_10">
     <defs>
      <path id="m95ce0413c0" d="M 0 5.477226 
C 1.452577 5.477226 2.845856 4.900111 3.872983 3.872983 
C 4.900111 2.845856 5.477226 1.452577 5.477226 0 
C 5.477226 -1.452577 4.900111 -2.845856 3.872983 -3.872983 
C 2.845856 -4.900111 1.452577 -5.477226 0 -5.477226 
C -1.452577 -5.477226 -2.845856 -4.900111 -3.872983 -3.872983 
C -4.900111 -2.845856 -5.477226 -1.452577 -5.477226 0 
C -5.477226 1.452577 -4.900111 2.845856 -3.872983 3.872983 
C -2.845856 4.900111 -1.452577 5.477226 0 5.477226 
z
" style="stroke: #6a737d"/>
     </defs>
     <g>
      <use xlink:href="#m95ce0413c0" x="582.422031" y="451.564453" style="fill: #6a737d; stroke: #6a737d"/>
     </g>
    </g>
    <g id="text_21">
     <text style="font-size: 13px; font-family: 'DejaVu Sans', 'Bitstream Vera Sans', 'Computer Modern Sans Serif', 'Lucida Grande', 'Verdana', 'Geneva', 'Lucid', 'Arial', 'Helvetica', 'Avant Garde', sans-serif; text-anchor: start; fill: #1f2328" x="605.822031" y="454.976953" transform="rotate(-0 605.822031 454.976953)">refined prompts (v8)</text>
    </g>
   </g>
  </g>
  <g id="text_22">
   <text style="font-weight: 700; font-size: 20px; font-family: 'DejaVu Sans', 'Bitstream Vera Sans', 'Computer Modern Sans Serif', 'Lucida Grande', 'Verdana', 'Geneva', 'Lucid', 'Arial', 'Helvetica', 'Avant Garde', sans-serif; text-anchor: start; fill: #1f2328" x="34.56" y="39.496875" transform="rotate(-0 34.56 39.496875)">Better instructions lifted every big model by 1.5 to 2.8 points</text>
  </g>
  <g id="text_23">
   <text style="font-size: 13px; font-family: 'DejaVu Sans', 'Bitstream Vera Sans', 'Computer Modern Sans Serif', 'Lucida Grande', 'Verdana', 'Geneva', 'Lucid', 'Arial', 'Helvetica', 'Avant Garde', sans-serif; text-anchor: start; fill: #6a737d" x="34.56" y="61.177969" transform="rotate(-0 34.56 61.177969)">Same models, same papers: our first prompts (v1) against the refined ones (v8)</text>
  </g>
  <g id="text_24">
   <text style="font-size: 10.5px; font-family: 'DejaVu Sans', 'Bitstream Vera Sans', 'Computer Modern Sans Serif', 'Lucida Grande', 'Verdana', 'Geneva', 'Lucid', 'Arial', 'Helvetica', 'Avant Garde', sans-serif; text-anchor: start; fill: #6a737d" x="34.56" y="527.757539" transform="rotate(-0 34.56 527.757539)">Opus judge, 0–10, same 3 held-out papers (15 parts) for every model. Part of the gap is a change of goal: v1 also corrected the paper and allowed lists.</text>
  </g>
 </g>
 <defs>
  <clipPath id="pa089f285d2">
   <rect x="216" y="102.6" width="535.68" height="367.2"/>
  </clipPath>
 </defs>
</svg>
